<svg width="166" height="36" viewBox="0 0 166 36" fill="none" xmlns="http://www.w3.org/2000/svg">
<rect width="166" height="36" rx="5" fill="#F4F4F5"/>
<path d="M22.8011 15.3636C22.7415 14.8598 22.4995 14.4688 22.0753 14.1903C21.651 13.9119 21.1307 13.7727 20.5142 13.7727C20.0634 13.7727 19.669 13.8456 19.331 13.9915C18.9962 14.1373 18.7344 14.3378 18.5455 14.593C18.3598 14.8482 18.267 15.1383 18.267 15.4631C18.267 15.7348 18.3317 15.9685 18.4609 16.1641C18.5935 16.3563 18.7625 16.517 18.968 16.6463C19.1735 16.7723 19.389 16.8767 19.6143 16.9595C19.8397 17.0391 20.0469 17.1037 20.2358 17.1534L21.2699 17.4318C21.535 17.5014 21.83 17.5975 22.1548 17.7202C22.483 17.8428 22.7962 18.0102 23.0945 18.2223C23.3961 18.4311 23.6446 18.6996 23.8402 19.0277C24.0357 19.3558 24.1335 19.7585 24.1335 20.2358C24.1335 20.786 23.9893 21.2831 23.701 21.7273C23.416 22.1714 22.9983 22.5244 22.4482 22.7862C21.9013 23.0481 21.2367 23.179 20.4545 23.179C19.7254 23.179 19.094 23.0613 18.5604 22.826C18.0301 22.5907 17.6125 22.2625 17.3075 21.8416C17.0059 21.4207 16.8352 20.9318 16.7955 20.375H18.0682C18.1013 20.7595 18.2306 21.0777 18.456 21.3295C18.6847 21.5781 18.973 21.7637 19.321 21.8864C19.6723 22.0057 20.0502 22.0653 20.4545 22.0653C20.9252 22.0653 21.3478 21.9891 21.7223 21.8366C22.0968 21.6809 22.3935 21.4654 22.6122 21.1903C22.831 20.9119 22.9403 20.5871 22.9403 20.2159C22.9403 19.8778 22.8459 19.6027 22.657 19.3906C22.468 19.1785 22.2195 19.0062 21.9112 18.8736C21.603 18.741 21.2699 18.625 20.9119 18.5256L19.6591 18.1676C18.8636 17.9389 18.2339 17.6125 17.7699 17.1882C17.3059 16.764 17.0739 16.2088 17.0739 15.5227C17.0739 14.9527 17.228 14.4555 17.5362 14.0312C17.8478 13.6037 18.2654 13.2723 18.7891 13.0369C19.3161 12.7983 19.9044 12.679 20.554 12.679C21.2102 12.679 21.7936 12.7966 22.304 13.032C22.8144 13.264 23.2188 13.5821 23.517 13.9865C23.8187 14.3909 23.9777 14.8499 23.9943 15.3636H22.8011ZM29.2033 23.1591C28.4675 23.1591 27.8328 22.9967 27.2992 22.6719C26.7689 22.3438 26.3596 21.8864 26.0712 21.2997C25.7862 20.7098 25.6436 20.0237 25.6436 19.2415C25.6436 18.4593 25.7862 17.7699 26.0712 17.1733C26.3596 16.5734 26.7606 16.1061 27.2743 15.7713C27.7914 15.4332 28.3946 15.2642 29.084 15.2642C29.4817 15.2642 29.8745 15.3305 30.2623 15.4631C30.65 15.5956 31.003 15.8111 31.3212 16.1094C31.6394 16.4044 31.8929 16.7955 32.0819 17.2827C32.2708 17.7699 32.3652 18.3698 32.3652 19.0824V19.5795H26.4789V18.5653H31.1721C31.1721 18.1345 31.0859 17.75 30.9135 17.4119C30.7445 17.0739 30.5025 16.8071 30.1877 16.6115C29.8761 16.416 29.5082 16.3182 29.084 16.3182C28.6167 16.3182 28.2123 16.4342 27.8709 16.6662C27.5328 16.8949 27.2727 17.1932 27.0904 17.5611C26.9081 17.929 26.8169 18.3234 26.8169 18.7443V19.4205C26.8169 19.9972 26.9164 20.486 27.1152 20.8871C27.3174 21.2848 27.5975 21.5881 27.9554 21.7969C28.3134 22.0024 28.7293 22.1051 29.2033 22.1051C29.5115 22.1051 29.79 22.062 30.0385 21.9759C30.2904 21.8864 30.5075 21.7538 30.6898 21.5781C30.8721 21.3991 31.013 21.1771 31.1124 20.9119L32.2459 21.2301C32.1266 21.6146 31.9261 21.9527 31.6444 22.2443C31.3626 22.5327 31.0146 22.758 30.6003 22.9205C30.186 23.0795 29.7203 23.1591 29.2033 23.1591ZM36.3972 23.179C35.9133 23.179 35.4741 23.0878 35.0797 22.9055C34.6853 22.7199 34.3721 22.4531 34.1401 22.1051C33.9081 21.7538 33.7921 21.3295 33.7921 20.8324C33.7921 20.3949 33.8783 20.0402 34.0506 19.7685C34.223 19.4934 34.4533 19.2779 34.7417 19.1222C35.03 18.9664 35.3482 18.8504 35.6962 18.7741C36.0475 18.6946 36.4005 18.6316 36.7551 18.5852C37.2192 18.5256 37.5953 18.4808 37.8837 18.451C38.1754 18.4179 38.3875 18.3632 38.5201 18.2869C38.656 18.2107 38.7239 18.0781 38.7239 17.8892V17.8494C38.7239 17.3589 38.5897 16.9777 38.3212 16.706C38.056 16.4342 37.6534 16.2983 37.1131 16.2983C36.553 16.2983 36.1138 16.4209 35.7956 16.6662C35.4775 16.9115 35.2537 17.1733 35.1245 17.4517L34.0108 17.054C34.2097 16.59 34.4748 16.2287 34.8063 15.9702C35.141 15.7083 35.5056 15.526 35.9 15.4233C36.2978 15.3172 36.6889 15.2642 37.0733 15.2642C37.3186 15.2642 37.6003 15.294 37.9185 15.3537C38.24 15.41 38.5499 15.5277 38.8482 15.7067C39.1498 15.8857 39.4 16.1558 39.5989 16.517C39.7978 16.8783 39.8972 17.3622 39.8972 17.9688V23H38.7239V21.9659H38.6642C38.5847 22.1316 38.4521 22.3089 38.2665 22.4979C38.0809 22.6868 37.834 22.8475 37.5257 22.9801C37.2175 23.1127 36.8413 23.179 36.3972 23.179ZM36.5762 22.125C37.0402 22.125 37.4313 22.0339 37.7495 21.8516C38.071 21.6693 38.3129 21.4339 38.4753 21.1456C38.641 20.8572 38.7239 20.554 38.7239 20.2358V19.1619C38.6742 19.2216 38.5648 19.2763 38.3958 19.326C38.2301 19.3724 38.0378 19.4138 37.8191 19.4503C37.6036 19.4834 37.3932 19.5133 37.1877 19.5398C36.9855 19.563 36.8214 19.5829 36.6955 19.5994C36.3906 19.6392 36.1055 19.7038 35.8404 19.7933C35.5785 19.8795 35.3664 20.0104 35.204 20.1861C35.0449 20.3584 34.9654 20.5937 34.9654 20.892C34.9654 21.2997 35.1162 21.608 35.4178 21.8168C35.7227 22.0223 36.1088 22.125 36.5762 22.125ZM42.0387 23V15.3636H43.1722V16.517H43.2518C43.391 16.1392 43.6429 15.8326 44.0075 15.5973C44.372 15.362 44.783 15.2443 45.2404 15.2443C45.3266 15.2443 45.4343 15.246 45.5636 15.2493C45.6928 15.2526 45.7906 15.2576 45.8569 15.2642V16.4574C45.8171 16.4474 45.726 16.4325 45.5835 16.4126C45.4442 16.3894 45.2968 16.3778 45.141 16.3778C44.7698 16.3778 44.4383 16.4557 44.1467 16.6115C43.8583 16.764 43.6296 16.9761 43.4606 17.2479C43.2949 17.5163 43.212 17.8229 43.212 18.1676V23H42.0387ZM50.1175 23.1591C49.4016 23.1591 48.7852 22.9901 48.2681 22.652C47.7511 22.3139 47.3533 21.8482 47.0749 21.255C46.7965 20.6617 46.6573 19.9839 46.6573 19.2216C46.6573 18.446 46.7998 17.7616 47.0849 17.1683C47.3732 16.5717 47.7743 16.1061 48.288 15.7713C48.805 15.4332 49.4083 15.2642 50.0977 15.2642C50.6346 15.2642 51.1185 15.3636 51.5494 15.5625C51.9802 15.7614 52.3332 16.0398 52.6083 16.3977C52.8834 16.7557 53.0541 17.1733 53.1204 17.6506H51.9471C51.8576 17.3026 51.6587 16.9943 51.3505 16.7259C51.0456 16.4541 50.6346 16.3182 50.1175 16.3182C49.6602 16.3182 49.2591 16.4375 48.9144 16.6761C48.573 16.9115 48.3062 17.2446 48.114 17.6754C47.9251 18.103 47.8306 18.6051 47.8306 19.1818C47.8306 19.7718 47.9234 20.2855 48.109 20.723C48.2979 21.1605 48.5631 21.5002 48.9045 21.7422C49.2492 21.9841 49.6535 22.1051 50.1175 22.1051C50.4225 22.1051 50.6992 22.0521 50.9478 21.946C51.1964 21.84 51.4068 21.6875 51.5792 21.4886C51.7515 21.2898 51.8742 21.0511 51.9471 20.7727H53.1204C53.0541 21.2235 52.89 21.6295 52.6282 21.9908C52.3697 22.3487 52.0266 22.6338 51.5991 22.8459C51.1748 23.0547 50.681 23.1591 50.1175 23.1591ZM56.0089 18.4062V23H54.8356V12.8182H56.0089V16.5568H56.1083C56.2873 16.1624 56.5558 15.8492 56.9137 15.6172C57.275 15.3819 57.7556 15.2642 58.3555 15.2642C58.8758 15.2642 59.3316 15.3686 59.7227 15.5774C60.1138 15.7829 60.417 16.0994 60.6325 16.527C60.8512 16.9512 60.9606 17.4915 60.9606 18.1477V23H59.7873V18.2273C59.7873 17.6207 59.6299 17.1518 59.315 16.8203C59.0034 16.4856 58.5709 16.3182 58.0174 16.3182C57.6329 16.3182 57.2882 16.3994 56.9833 16.5618C56.6817 16.7242 56.4431 16.9612 56.2674 17.2727C56.0951 17.5843 56.0089 17.9621 56.0089 18.4062Z" fill="#A1A1AA"/>
<path d="M148.909 12C147.938 12 146.989 12.2879 146.182 12.8273C145.374 13.3667 144.745 14.1334 144.374 15.0304C144.002 15.9275 143.905 16.9145 144.094 17.8668C144.284 18.819 144.751 19.6937 145.438 20.3803C146.124 21.0668 146.999 21.5344 147.951 21.7238C148.904 21.9132 149.891 21.816 150.788 21.4444C151.685 21.0729 152.451 20.4437 152.991 19.6364C153.53 18.8291 153.818 17.88 153.818 16.9091C153.818 15.6071 153.301 14.3585 152.38 13.4379C151.46 12.5173 150.211 12.0001 148.909 12Z" stroke="#52525B" stroke-width="1.5" stroke-miterlimit="10"/>
<path d="M152.572 20.5716L156 24" stroke="#52525B" stroke-width="1.5" stroke-miterlimit="10" stroke-linecap="round"/>
</svg>
